<svg xmlns="http://www.w3.org/2000/svg" xmlns:xlink="http://www.w3.org/1999/xlink"><symbol id="favicon" viewBox="0 0 512 512"><style>.st0{fill:#000}</style><path class="st0" d="M124.84 0h262.32v25.282H124.84zM313.805 420.226h-6.056c-.256 0-.388.132-.388.388v8.51c0 .255.132.387.388.387h6.056c3.225 0 5.158-1.806 5.158-4.642 0-2.838-1.933-4.643-5.158-4.643zM197.083 428.216c3.418 0 5.224-1.48 5.224-4.51 0-3.093-1.744-4.511-5.224-4.511h-4.577c-.256 0-.384.132-.384.388v8.246c0 .264.128.388.384.388h4.577zM197.665 436.021h-5.159c-.256 0-.384.124-.384.388v9.083c0 .256.128.388.384.388h5.159c3.545 0 5.348-1.744 5.348-4.96-.001-3.031-1.803-4.899-5.348-4.899z"/><path class="st0" d="M412.385 80.063c-4.212-7.372-31.602-43.194-31.602-43.194H131.219s-27.395 35.822-31.606 43.194c-4.213 7.378-3.159 10.532-3.159 21.073v349.759c0 13.696 3.902 31.157 13.695 35.822C130.044 496.197 122.674 512 143.86 512h224.276c21.191 0 13.816-15.803 33.711-25.283 9.793-4.666 13.7-22.127 13.7-35.822V101.136c0-10.54 1.05-13.695-3.162-21.073zm-63.864 85.713c.791-1.899 1.852-3.589 3.193-4.922.848-.829 1.805-1.526 2.871-2.015l.957-.433.953.604c.826.527 1.586 1.17 2.264 1.907 1.48 1.604 2.589 3.635 3.24 5.858.655 2.233.852 4.666.515 7.131a25.21 25.21 0 0 1-1.522 5.735c-.752 1.876-1.706 3.628-2.86 5.1-.771.984-1.628 1.844-2.6 2.527a7.709 7.709 0 0 1-2.093 1.054l-.984.325-.756-.605c-.516-.41-.95-.891-1.349-1.418-.647-.891-1.178-1.914-1.627-3.038a24.71 24.71 0 0 1-1.097-3.635c-.562-2.558-.837-5.324-.609-7.936.205-2.217.713-4.333 1.504-6.239zm-20.586-17.323c.391-2.015 1.097-3.891 2.147-5.456.663-.992 1.461-1.86 2.406-2.549l.853-.621 1.054.395a11.64 11.64 0 0 1 2.604 1.426c1.774 1.279 3.266 3.038 4.352 5.1a17.021 17.021 0 0 1 1.93 6.882 24.638 24.638 0 0 1-.344 5.93c-.357 1.984-.946 3.89-1.783 5.572-.558 1.109-1.228 2.124-2.042 2.984a7.755 7.755 0 0 1-1.84 1.457l-.903.511-.856-.441c-.589-.294-1.112-.682-1.604-1.124-.818-.737-1.539-1.636-2.205-2.651a23.813 23.813 0 0 1-1.798-3.341c-1.066-2.395-1.891-5.053-2.19-7.65-.246-2.223-.172-4.401.219-6.424zm-20.074-21.298.71-.767 1.116.186c.965.163 1.922.465 2.836.883 1.992.907 3.806 2.348 5.278 4.155a17.114 17.114 0 0 1 3.24 6.356l-.121-.458.125.465.003.008v.008c.5 1.844.784 3.875.822 5.882.034 2.015-.167 4.007-.66 5.813-.332 1.202-.786 2.333-1.422 3.332a7.855 7.855 0 0 1-1.522 1.783l-.783.674-.93-.263a7.296 7.296 0 0 1-1.79-.791c-.949-.566-1.832-1.302-2.681-2.17-.853-.86-1.663-1.86-2.422-2.922-1.515-2.147-2.844-4.588-3.647-7.084-.678-2.131-1.035-4.278-1.046-6.332-.012-2.062.314-4.03 1.031-5.782.457-1.1 1.069-2.108 1.863-2.976zm14.936 57.687a9.153 9.153 0 0 1-1.407 1.868c-.818.852-1.767 1.604-2.783 2.286-1.019.69-2.1 1.302-3.216 1.876-2.216 1.131-4.526 2.077-6.552 2.728-1.973.636-3.76.938-5.298.915-1.543-.024-2.836-.364-3.824-1.078a4.258 4.258 0 0 1-1.152-1.225l-.36-.566.384-.937c.43-1.039.984-2.07 1.647-3.062a19.685 19.685 0 0 1 3.886-4.278c1.527-1.248 3.267-2.28 5.154-2.961a15.107 15.107 0 0 1 5.166-.852c1.736.008 3.426.31 4.879.868.968.371 1.832.867 2.53 1.488.422.379.776.814 1.046 1.302l.392.736-.492.892zm1.042 8.51c1.748-.256 3.538-.163 5.236.194 1.701.356 3.298.992 4.611 1.83.872.558 1.624 1.209 2.178 1.968.342.449.601.946.768 1.48l.24.798-.663.775a9.302 9.302 0 0 1-1.752 1.55c-.973.674-2.05 1.217-3.182 1.69a33.666 33.666 0 0 1-3.522 1.194 47.14 47.14 0 0 1-6.972 1.364c-2.057.232-3.868.162-5.379-.17-1.503-.326-2.709-.93-3.538-1.822a4.528 4.528 0 0 1-.883-1.434l-.24-.636.566-.838a17.435 17.435 0 0 1 2.225-2.666 19.72 19.72 0 0 1 4.666-3.418c1.747-.913 3.657-1.572 5.641-1.859zm-16.792-20.756a9.036 9.036 0 0 1-1.016 2.101c-.635 1.007-1.422 1.922-2.286 2.79a30.222 30.222 0 0 1-2.782 2.465 45.66 45.66 0 0 1-5.89 3.968c-1.81 1.007-3.499 1.651-5.011 1.93-1.511.279-2.844.209-3.948-.302a4.402 4.402 0 0 1-1.368-.969l-.461-.488.194-.992a17.594 17.594 0 0 1 1.016-3.325 19.615 19.615 0 0 1 2.968-4.96c1.252-1.519 2.755-2.876 4.468-3.914a15.025 15.025 0 0 1 4.898-1.852c1.701-.325 3.417-.364 4.952-.101 1.019.178 1.964.488 2.77.968.484.287.918.636 1.279 1.07l.527.644-.31.967zm-12.707-50.58c3.38 1.023 6.724 2.17 10.022 3.449.81.31 1.217 1.17.922 1.906-.298.744-1.174 1.085-1.964.782a137.035 137.035 0 0 0-9.817-3.371c-.81-.248-1.286-1.062-1.062-1.829.222-.766 1.07-1.185 1.899-.937zm-18.732 25.632c1.398-1.891 3.414-3.194 5.739-3.844 2.318-.643 4.956-.62 7.549.202a15.415 15.415 0 0 1 5.27 2.891c1.519 1.278 2.74 2.798 3.511 4.471.508 1.124.825 2.318.848 3.566l.016 1.007-.752.667c-.93.829-1.984 1.434-3.081 1.875-1.101.45-2.256.736-3.429.899-2.352.326-4.783.155-7.034-.535a13.75 13.75 0 0 1-5.743-3.526c-1.546-1.597-2.725-3.589-3.259-5.875l-.232-.976.597-.822zm8.075 33.87c-.298.744-.906 1.194-1.363 1.023a82.226 82.226 0 0 0-5.705-1.969c-.473-.14-.671-.876-.453-1.643.224-.76.798-1.264 1.29-1.116a84.05 84.05 0 0 1 5.91 2.03c.477.187.615.938.321 1.675zm-18.853-35.986c2.772.294 5.534.69 8.278 1.186.678.116 1.105.86.953 1.643-.151.79-.806 1.31-1.464 1.202a109.375 109.375 0 0 0-8.068-1.155c-.666-.07-1.148-.768-1.07-1.558.073-.799.685-1.388 1.371-1.318zm-32.575 66.29c0-.774.511-1.286 1.283-1.286h35.478c19.469 0 28.436 9.355 28.436 23.19 0 8.96-4.1 15.238-10.63 18.695v.255c6.402 2.434 12.168 9.734 12.168 19.857 0 17.036-12.04 25.104-30.359 25.104h-35.094c-.772 0-1.283-.511-1.283-1.279v-84.536zm-13.61-48.883a99.963 99.963 0 0 1 10.688-4.324c.903-.302 1.817.031 2.046.744.228.712-.298 1.527-1.171 1.821a98.9 98.9 0 0 0-10.409 4.216c-.837.387-1.774.178-2.104-.496-.333-.667.082-1.558.95-1.961zm-18.776 48.495h-.031a43.17 43.17 0 0 1-5.46.21c-1.872-.047-3.77-.226-5.487-.628-1.147-.279-2.232-.66-3.186-1.232a6.04 6.04 0 0 1-1.666-1.449l-.609-.784.36-1.054a9.168 9.168 0 0 1 1.039-2.03c.713-1.078 1.639-2.062 2.693-2.969a20.593 20.593 0 0 1 3.511-2.386c2.531-1.364 5.329-2.21 7.902-2.294a14.69 14.69 0 0 1 6.03 1.039 13.307 13.307 0 0 1 4.565 3.069c.77.806 1.422 1.705 1.918 2.666l.449.852-.422.775a8.946 8.946 0 0 1-1.342 1.836c-1.139 1.21-2.612 2.171-4.348 2.906-1.727.729-3.726 1.241-5.916 1.473zm-26.538 65.368c.512-2.82 1.585-5.533 3.12-7.603 1.31-1.767 2.883-3.123 4.569-4.069a13.1 13.1 0 0 1 5.236-1.666 11.554 11.554 0 0 1 3.282.155l.95.186.34.806c.298.706.492 1.434.605 2.186.237 1.643.074 3.387-.434 5.201-.5 1.814-1.352 3.689-2.542 5.564a43.974 43.974 0 0 1-3.228 4.394c-1.213 1.442-2.511 2.814-3.902 3.914-.93.728-1.899 1.34-2.941 1.736a6.038 6.038 0 0 1-2.174.403l-.992-.007-.601-.938a9.295 9.295 0 0 1-.949-2.077c-.395-1.225-.597-2.566-.647-3.946-.048-1.387.06-2.821.308-4.239zm-.395-14.904a6.099 6.099 0 0 1-2.197-.24l-.946-.302-.302-1.062a9.458 9.458 0 0 1-.306-2.27c-.027-1.287.174-2.627.523-3.976.356-1.34.868-2.682 1.519-3.968 1.298-2.557 3.112-4.852 5.17-6.394 1.763-1.317 3.666-2.163 5.545-2.581a13.31 13.31 0 0 1 5.495-.093c1.093.224 2.139.589 3.096 1.092l.86.45.093.868a8.912 8.912 0 0 1-.05 2.271c-.24 1.636-.899 3.263-1.907 4.868-1.011 1.589-2.352 3.162-4.037 4.619a43.753 43.753 0 0 1-4.372 3.294c-1.57 1.031-3.216 1.969-4.863 2.62-1.1.424-2.208.734-3.321.804zm16.474-30.026a43.004 43.004 0 0 1-5.15 1.806c-1.81.512-3.662.899-5.43 1.023-1.178.078-2.325.031-3.41-.233-.712-.178-1.399-.457-2.019-.891l-.814-.573.031-1.109a9.708 9.708 0 0 1 .395-2.248c.368-1.233.953-2.457 1.698-3.627a20.059 20.059 0 0 1 2.65-3.317c2.016-2.046 4.441-3.674 6.871-4.51a14.548 14.548 0 0 1 6.068-.768c1.922.163 3.713.728 5.263 1.589a11.579 11.579 0 0 1 2.612 1.976l.682.69-.174.86a9.319 9.319 0 0 1-.736 2.147c-.728 1.48-1.86 2.829-3.294 4.038-1.442 1.209-3.197 2.279-5.243 3.147zm22.624-32.188a75.18 75.18 0 0 1 6.693-5.34c.573-.411 1.379-.232 1.806.395.418.62.31 1.426-.233 1.814a73.365 73.365 0 0 0-6.456 5.154c-.507.442-1.317.372-1.825-.178-.512-.55-.512-1.38.015-1.845zm-13.777-31.42c3.018-2.224 6.32-3.604 9.374-4.138 3.054-.528 5.874-.232 8.01.93l.91.496-.12 1.039c-.287 2.387-1.434 4.821-3.089 7.099-1.662 2.287-3.848 4.434-6.46 6.356a37.057 37.057 0 0 1-6.212 3.666c-2.136.992-4.287 1.76-6.352 2.132-1.38.241-2.721.318-3.988.077l-1.015-.178-.217-1.023c-.248-1.256-.171-2.651.182-4.069.348-1.434.957-2.914 1.783-4.371 1.644-2.94 4.171-5.807 7.194-8.016zm-22.713-9.386a129.245 129.245 0 0 1 11.494-9.169c.98-.697 2.128-.752 2.546-.124.422.613-.02 1.651-.973 2.333a127.683 127.683 0 0 0-11.257 8.983c-.88.782-1.988.984-2.496.434-.511-.543-.217-1.651.686-2.457zm-14.071 14.904c1.19-2.852 2.891-5.526 4.968-7.736a21.195 21.195 0 0 1 3.084-2.728l1.256-.892 1.008.318a6.705 6.705 0 0 1 2.828 1.782c1.229 1.28 2.039 3.038 2.477 5.085.445 2.061.515 4.433.228 7.014-.248 2.263-.841 4.72-1.593 7.17a56.554 56.554 0 0 1-2.694 7.115c-.69 1.488-1.441 2.882-2.282 4.162-.515.752-1.05 1.48-1.666 2.123l-.891.961-1.012-.132a5.265 5.265 0 0 1-2.104-.736c-.949-.582-1.756-1.418-2.449-2.434-.694-1.015-1.276-2.217-1.736-3.526-.938-2.628-1.398-5.712-1.344-8.735.051-2.936.732-5.959 1.922-8.811zm-19.83 33.436c.295-3.084 1.147-6.153 2.488-8.89a21.343 21.343 0 0 1 2.147-3.511l.942-1.232 1.05.007a6.788 6.788 0 0 1 3.236.876c1.55.868 2.83 2.294 3.86 4.139 1.027 1.836 1.786 4.084 2.275 6.634.414 2.248.581 4.774.585 7.332-.008 2.566-.159 5.17-.48 7.611-.226 1.628-.52 3.186-.957 4.651-.264.875-.562 1.728-.965 2.526l-.566 1.186-1.004.178c-.77.14-1.515.093-2.228-.085-1.082-.28-2.097-.837-3.058-1.605-.957-.76-1.879-1.736-2.705-2.844-1.663-2.24-3.027-5.061-3.864-7.968-.806-2.821-1.054-5.921-.756-9.005zm-9.494 29.77a21.48 21.48 0 0 1 .976-4.007l.523-1.457 1.008-.31a6.62 6.62 0 0 1 3.34-.155c1.736.357 3.406 1.325 4.938 2.767 1.542 1.441 2.952 3.348 4.189 5.627 1.097 2.015 1.996 4.364 2.794 6.797a57.305 57.305 0 0 1 1.848 7.378c.291 1.62.465 3.193.5 4.712.016.915-.023 1.806-.155 2.682l-.186 1.302-.903.473a5.304 5.304 0 0 1-2.151.589c-1.112.062-2.252-.162-3.398-.605-1.155-.434-2.302-1.085-3.441-1.898-2.256-1.62-4.414-3.883-6.084-6.386-1.624-2.426-2.813-5.294-3.457-8.309-.651-3.016-.779-6.193-.341-9.2zm25.522 57.842c-.554.55-1.194.93-1.883 1.194-1.047.379-2.205.496-3.43.403-1.224-.086-2.527-.372-3.84-.822-2.64-.899-5.356-2.465-7.689-4.387-2.271-1.868-4.216-4.294-5.716-7.006-1.492-2.705-2.53-5.72-2.972-8.727a21.73 21.73 0 0 1-.217-4.108l.086-1.55.876-.581a6.618 6.618 0 0 1 3.154-1.109c1.771-.162 3.639.295 5.526 1.225 1.883.938 3.786 2.364 5.627 4.186 1.62 1.62 3.174 3.611 4.627 5.72a57.634 57.634 0 0 1 3.902 6.549c.74 1.464 1.372 2.922 1.844 4.371.284.876.504 1.744.636 2.628l.198 1.302-.729.712zm41.412 159.622h-17.66c-.388 0-.648-.256-.648-.643v-42.543c0-.387.26-.644.648-.644h17.853c9.797 0 14.308 4.705 14.308 11.665 0 4.518-2.062 7.673-5.348 9.417v.124c3.22 1.225 6.123 4.899 6.123 9.991 0 8.572-6.061 12.633-15.276 12.633zm52.528-34.869c0 .388-.259.643-.643.643H233.37c-.256 0-.388.132-.388.388v6.643c0 .256.132.387.388.387h14.439c.388 0 .644.256.644.643v8.123c0 .379-.256.643-.644.643H233.37c-.256 0-.388.125-.388.388v7.022c0 .256.132.387.388.387h17.598c.384 0 .643.256.643.644v8.317c0 .387-.259.643-.643.643h-28.681c-.388 0-.648-.256-.648-.643v-42.543c0-.387.26-.644.648-.644h28.681c.384 0 .643.256.643.644v8.315zm37.188 0c0 .388-.256.643-.644.643h-17.594c-.26 0-.388.132-.388.388v6.643c0 .256.128.387.388.387h14.436c.387 0 .643.256.643.643v8.123c0 .379-.256.643-.643.643h-14.436c-.26 0-.388.125-.388.388v7.022c0 .256.128.387.388.387h17.594c.387 0 .644.256.644.644v8.317c0 .387-.256.643-.644.643h-28.681c-.387 0-.647-.256-.647-.643v-42.543c0-.387.26-.644.647-.644h28.681c.387 0 .644.256.644.644v8.315zm41.896 34.869h-11.149c-.582 0-.776-.194-.969-.643l-6.638-14.959h-4.189c-.256 0-.388.132-.388.387v14.572c0 .387-.256.643-.643.643h-10.056c-.387 0-.644-.256-.644-.643v-42.543c0-.387.256-.644.644-.644h17.853c10.056 0 15.791 5.868 15.791 14.114 0 5.48-2.577 9.928-7.219 12.245l8.06 16.696c.189.388 0 .775-.453.775zm9.85-128.442c-8.805 9.836-19.485 18.005-31.312 23.902a104.066 104.066 0 0 1-37.955 10.595c-13.148 1.085-26.518-.294-39.171-4.154a104.209 104.209 0 0 1-34.846-18.384 104.9 104.9 0 0 1-25.596-29.941 103.92 103.92 0 0 1-12.703-37.303c-1.802-13.083-1.155-26.484 1.984-39.334 3.127-12.842 8.742-25.072 16.415-35.83 1.162-1.62 3.154-2.132 4.375-1.186 1.225.953 1.286 2.929.198 4.448a98.826 98.826 0 0 0-15.532 33.893c-2.968 12.153-3.581 24.857-1.876 37.234a98.362 98.362 0 0 0 12.013 35.296 99.486 99.486 0 0 0 24.229 28.336 98.685 98.685 0 0 0 31.862 17.036 52.174 52.174 0 0 1-3.441-2.201c-6.208-4.31-11.606-10.122-15.203-16.23-3.639-6.107-5.507-12.408-5.859-17.64-.372-5.255.686-9.41 2.406-11.952 5.464 6.952 10.084 13.006 14.7 19.043 4.584 5.991 9.238 11.82 13.932 16.966 4.669 5.139 9.308 9.556 13.18 12.602 2.398 1.891 4.483 3.256 6.131 3.929 4.115.171 8.238.117 12.342-.224 12.459-1.023 24.724-4.433 35.909-10.03a99.271 99.271 0 0 0 29.633-22.623c1.248-1.388 3.19-1.76 4.388-.776 1.193.986 1.127 3.04-.203 4.528zm27.34-58.942c-.105 1.441-1.558 2.48-3.193 2.316-1.648-.162-2.868-1.394-2.774-2.751 1.542-20.516-2.896-41.419-12.661-59.524-9.703-18.136-24.623-33.436-42.523-43.558-1.182-.675-1.527-2.372-.752-3.829.775-1.457 2.441-2.093 3.701-1.372 18.888 10.672 34.614 26.809 44.844 45.938 10.301 19.082 14.986 41.155 13.358 62.78z"/><path class="st0" d="M265.815 280.6c7.045 0 10.629-3.456 10.629-9.859 0-6.021-3.584-9.734-10.629-9.734h-10.246c-.512 0-.771.256-.771.768v18.059c0 .511.26.766.771.766h10.246zM264.663 245.506c6.786 0 10.374-2.945 10.374-8.968 0-6.146-3.461-8.968-10.374-8.968h-9.095c-.512 0-.771.256-.771.776v16.392c0 .511.26.768.771.768h9.095z"/></symbol></svg>